<svg width="64.000000" height="64.000000" viewBox="0 0 64 64" fill="none" xmlns="http://www.w3.org/2000/svg" xmlns:xlink="http://www.w3.org/1999/xlink">
	<desc>
			Created with Pixso.
	</desc>
	<defs>
		<clipPath id="clip10_49">
			<rect id="file-pather" width="64.000000" height="64.000000" fill="white" fill-opacity="0"/>
		</clipPath>
	</defs>
	<g clip-path="url(#clip10_49)">
		<path id="shape" d="M18 50L45.99 50C48.2 50 50 48.2 50 45.99L50 25.2C50 22.98 48.2 21.2 45.99 21.2L33.25 21.2C31.67 21.2 30.23 20.24 29.59 18.79L28.53 16.39C27.91 14.94 26.47 14 24.87 14L18 14C15.78 14 14 15.78 14 18L14 45.99C14 48.2 15.78 50 18 50Z" fill="#000000" fill-opacity="0" fill-rule="nonzero"/>
		<path id="shape" d="M45.99 50C48.2 50 50 48.2 50 45.99L50 25.2C50 22.98 48.2 21.2 45.99 21.2L33.25 21.2C31.67 21.2 30.23 20.24 29.59 18.79L28.53 16.39C27.91 14.94 26.47 14 24.87 14L18 14C15.78 14 14 15.78 14 18L14 45.99C14 48.2 15.78 50 18 50L45.99 50Z" stroke="#888888" stroke-opacity="1.000000" stroke-width="3.000000"/>
	</g>
</svg>
