<svg width="64.000000" height="64.000000" viewBox="0 0 64 64" fill="none" xmlns="http://www.w3.org/2000/svg" xmlns:xlink="http://www.w3.org/1999/xlink">
	<desc>
			Created with Pixso.
	</desc>
	<defs>
		<clipPath id="clip10_64">
			<rect id="option" width="64.000000" height="64.000000" fill="white" fill-opacity="0"/>
		</clipPath>
	</defs>
	<g clip-path="url(#clip10_64)">
		<path id="shape" d="M20 29C18.34 29 17 30.34 17 32C17 33.65 18.34 35 20 35C21.65 35 23 33.65 23 32C23 30.34 21.65 29 20 29ZM35 32C35 33.65 33.65 35 32 35C30.34 35 29 33.65 29 32C29 30.34 30.34 29 32 29C33.65 29 35 30.34 35 32ZM41 32C41 30.34 42.34 29 44 29C45.65 29 47 30.34 47 32C47 33.65 45.65 35 44 35C42.34 35 41 33.65 41 32Z" fill="#888888" fill-opacity="1.000000" fill-rule="evenodd"/>
	</g>
</svg>
